# xmcd
#
# Track frame offsets:
#	150
#	10950
#	23307
#	33507
#	45837
#	58515
#	69137
#	81012
#	95572
#	105087
#	115010
#	126097
#	138225
#	148722
#	158020
#	171597
#	184117
#	191940
#	205977
#	221870
#
# Disc length: 3121 seconds
#
# Revision: 1
# Processed by: cddbd v1.5.2PL0 Copyright (c) Steve Scherf et al.
# Submitted via: EasyCDDAExtractor 10.2.0.1
#
DISCID=0b0c2f14
DTITLE=Lester Flatt and The Nashville Grass - The Essential Lester Flatt and The N
DTITLE=ashville Grass (1976)  (2003)
DYEAR=1976
DGENRE=Bluegrass
TTITLE0=I Don't Care Anymore
TTITLE1=Is It Too Late Now
TTITLE2=Shuckin'  The Corn
TTITLE3=The Legend Of The Johnson Boys
TTITLE4=Please Don't Wake Me
TTITLE5=Good Times Are Past And Gone
TTITLE6=Drink That Mash And Talk That Trash
TTITLE7=Why Don't You Tell Me So
TTITLE8=Gonna Have Myself A Ball
TTITLE9=The Ballad Of Jed Clampett
TTITLE10=Why Did You Wander
TTITLE11=Regina
TTITLE12=I Live The Life Of Riley
TTITLE13=Foggy Mountain Special (Instrumental)
TTITLE14=We Can't Be Darlings Anymore
TTITLE15=I Still Miss Someone
TTITLE16=Black Eyed Suzy
TTITLE17=If I Should Wander Back Tonight
TTITLE18=Bummin' An Old Freight Train
TTITLE19=Thinking About You
EXTD=
EXTT0=
EXTT1=
EXTT2=
EXTT3=
EXTT4=
EXTT5=
EXTT6=
EXTT7=
EXTT8=
EXTT9=
EXTT10=
EXTT11=
EXTT12=
EXTT13=
EXTT14=
EXTT15=
EXTT16=
EXTT17=
EXTT18=
EXTT19=
PLAYORDER=
